<?xml version="1.0" encoding="UTF-8" standalone="no"?>
<!DOCTYPE svg PUBLIC "-//W3C//DTD SVG 1.1//EN"
 "http://www.w3.org/Graphics/SVG/1.1/DTD/svg11.dtd">
<!-- Generated by graphviz version 2.38.0 (20140413.2041)
 -->
<!-- Title: classes_No_Name Pages: 1 -->
<svg width="730pt" height="243pt"
 viewBox="0.00 0.00 729.50 243.00" xmlns="http://www.w3.org/2000/svg" xmlns:xlink="http://www.w3.org/1999/xlink">
<g id="graph0" class="graph" transform="scale(1 1) rotate(0) translate(4 239)">
<title>classes_No_Name</title>
<polygon fill="white" stroke="none" points="-4,4 -4,-239 725.5,-239 725.5,4 -4,4"/>
<!-- 0 -->
<g id="node1" class="node"><title>0</title>
<polygon fill="none" stroke="black" points="0,-45.5 0,-189.5 99,-189.5 99,-45.5 0,-45.5"/>
<text text-anchor="middle" x="49.5" y="-174.3" font-family="Times,serif" font-size="14.00">Aoi</text>
<polyline fill="none" stroke="black" points="0,-166.5 99,-166.5 "/>
<text text-anchor="start" x="8" y="-151.3" font-family="Times,serif" font-size="14.00">height</text>
<text text-anchor="start" x="8" y="-136.3" font-family="Times,serif" font-size="14.00">kind</text>
<text text-anchor="start" x="8" y="-121.3" font-family="Times,serif" font-size="14.00">name</text>
<text text-anchor="start" x="8" y="-106.3" font-family="Times,serif" font-size="14.00">width</text>
<text text-anchor="start" x="8" y="-91.3" font-family="Times,serif" font-size="14.00">x</text>
<text text-anchor="start" x="8" y="-76.3" font-family="Times,serif" font-size="14.00">y</text>
<polyline fill="none" stroke="black" points="0,-68.5 99,-68.5 "/>
<text text-anchor="start" x="8" y="-53.3" font-family="Times,serif" font-size="14.00">containsPoint()</text>
</g>
<!-- 1 -->
<g id="node2" class="node"><title>1</title>
<polygon fill="none" stroke="black" points="117.5,-68 117.5,-167 181.5,-167 181.5,-68 117.5,-68"/>
<text text-anchor="middle" x="149.5" y="-151.8" font-family="Times,serif" font-size="14.00">Distance</text>
<polyline fill="none" stroke="black" points="117.5,-144 181.5,-144 "/>
<text text-anchor="start" x="125.5" y="-128.8" font-family="Times,serif" font-size="14.00">distance</text>
<text text-anchor="start" x="125.5" y="-113.8" font-family="Times,serif" font-size="14.00">point1</text>
<text text-anchor="start" x="125.5" y="-98.8" font-family="Times,serif" font-size="14.00">point2</text>
<polyline fill="none" stroke="black" points="117.5,-91 181.5,-91 "/>
<text text-anchor="middle" x="149.5" y="-75.8" font-family="Times,serif" font-size="14.00"> </text>
</g>
<!-- 2 -->
<g id="node3" class="node"><title>2</title>
<polygon fill="none" stroke="black" points="200,-68 200,-167 357,-167 357,-68 200,-68"/>
<text text-anchor="middle" x="278.5" y="-151.8" font-family="Times,serif" font-size="14.00">FileOfClusters</text>
<polyline fill="none" stroke="black" points="200,-144 357,-144 "/>
<text text-anchor="start" x="208" y="-128.8" font-family="Times,serif" font-size="14.00">clusterDict : dict</text>
<polyline fill="none" stroke="black" points="200,-121 357,-121 "/>
<text text-anchor="start" x="208" y="-105.8" font-family="Times,serif" font-size="14.00">add_cluster()</text>
<text text-anchor="start" x="208" y="-90.8" font-family="Times,serif" font-size="14.00">get_cluster()</text>
<text text-anchor="start" x="208" y="-75.8" font-family="Times,serif" font-size="14.00">get_number_of_clusters()</text>
</g>
<!-- 3 -->
<g id="node4" class="node"><title>3</title>
<polygon fill="none" stroke="black" points="375.5,-0.5 375.5,-234.5 543.5,-234.5 543.5,-0.5 375.5,-0.5"/>
<text text-anchor="middle" x="459.5" y="-219.3" font-family="Times,serif" font-size="14.00">Point</text>
<polyline fill="none" stroke="black" points="375.5,-211.5 543.5,-211.5 "/>
<text text-anchor="start" x="383.5" y="-196.3" font-family="Times,serif" font-size="14.00">aoi</text>
<text text-anchor="start" x="383.5" y="-181.3" font-family="Times,serif" font-size="14.00">autoxCorrected : NoneType</text>
<text text-anchor="start" x="383.5" y="-166.3" font-family="Times,serif" font-size="14.00">autoyCorrected : NoneType</text>
<text text-anchor="start" x="383.5" y="-151.3" font-family="Times,serif" font-size="14.00">duration</text>
<text text-anchor="start" x="383.5" y="-136.3" font-family="Times,serif" font-size="14.00">endTime</text>
<text text-anchor="start" x="383.5" y="-121.3" font-family="Times,serif" font-size="14.00">filename</text>
<text text-anchor="start" x="383.5" y="-106.3" font-family="Times,serif" font-size="14.00">startTime</text>
<text text-anchor="start" x="383.5" y="-91.3" font-family="Times,serif" font-size="14.00">x</text>
<text text-anchor="start" x="383.5" y="-76.3" font-family="Times,serif" font-size="14.00">xCorrected</text>
<text text-anchor="start" x="383.5" y="-61.3" font-family="Times,serif" font-size="14.00">y</text>
<text text-anchor="start" x="383.5" y="-46.3" font-family="Times,serif" font-size="14.00">yCorrected</text>
<polyline fill="none" stroke="black" points="375.5,-38.5 543.5,-38.5 "/>
<text text-anchor="start" x="383.5" y="-23.3" font-family="Times,serif" font-size="14.00">xCorrectionCoefficient()</text>
<text text-anchor="start" x="383.5" y="-8.3" font-family="Times,serif" font-size="14.00">yCorrectionCoeffieient()</text>
</g>
<!-- 4 -->
<g id="node5" class="node"><title>4</title>
<polygon fill="none" stroke="black" points="561.5,-68 561.5,-167 721.5,-167 721.5,-68 561.5,-68"/>
<text text-anchor="middle" x="641.5" y="-151.8" font-family="Times,serif" font-size="14.00">SessionsOfPoints</text>
<polyline fill="none" stroke="black" points="561.5,-144 721.5,-144 "/>
<text text-anchor="start" x="569.5" y="-128.8" font-family="Times,serif" font-size="14.00">listOfFiles : dict</text>
<polyline fill="none" stroke="black" points="561.5,-121 721.5,-121 "/>
<text text-anchor="start" x="569.5" y="-105.8" font-family="Times,serif" font-size="14.00">add_session()</text>
<text text-anchor="start" x="569.5" y="-90.8" font-family="Times,serif" font-size="14.00">get_number_of_sessions()</text>
<text text-anchor="start" x="569.5" y="-75.8" font-family="Times,serif" font-size="14.00">get_session()</text>
</g>
</g>
</svg>
